<svg viewBox="0 0 64 64" xml:space="preserve" xmlns="http://www.w3.org/2000/svg"><path d="M52 13.475H12c-2.2 0-4 1.8-4 4v12.481h12.301l2.688-6.877a2.011 2.011 0 0 1 1.914-1.271 2.002 2.002 0 0 1 1.847 1.368l3.803 11.437 4.104-9.763a2.001 2.001 0 0 1 1.77-1.223 1.966 1.966 0 0 1 1.855 1.089l2.676 5.241h2.709a2 2 0 0 1 0 4h-3.934a2 2 0 0 1-1.781-1.09l-1.275-2.499-4.499 10.7a2 2 0 0 1-1.843 1.225c-.026 0-.052 0-.078-.002a1.997 1.997 0 0 1-1.821-1.367L24.7 29.689l-1.17 2.995a2 2 0 0 1-1.863 1.272H8v12.568c0 2.2 1.8 4 4 4h40c2.2 0 4-1.8 4-4v-29.05c0-2.199-1.8-3.999-4-3.999z" fill="#ffffff" class="fill-000000"></path></svg>